<?xml version="1.0" encoding="utf-8" ?>
<svg baseProfile="full" height="800" version="1.1" width="923" xmlns="http://www.w3.org/2000/svg" xmlns:ev="http://www.w3.org/2001/xml-events" xmlns:xlink="http://www.w3.org/1999/xlink"><defs><marker id="arrow" markerHeight="3.5" markerWidth="5" orient="auto" refX="5.0" refY="1.7"><polygon points="0,0 5,1.75 0,3.5" /></marker></defs><g style="fill:white;"><g transform="matrix(1.0, 0.0, 0.0, 1.0, 461.88021535170066, 400.0000000000001)"><g transform="matrix(146.62863979419066, 0.0, 0.0, 146.62863979419066, 0.0, 0.0)"><g><g transform="matrix(1.0, 0.0, 0.0, 1.0, -0.0, -3.0310889132455356)"><g><g><g><g><g><g><g><g /><g transform="matrix(1.0, 0.0, 0.0, 1.0, 0.0, 0.0)"><g /></g></g><g transform="matrix(1.0, 0.0, 0.0, 1.0, 0.0, 0.8660254037844386)"><g transform="matrix(1.0, 0.0, 0.0, 1.0, 1.1102230246251565e-16, 0.14433756729740635)"><g><g /><g style="stroke: black;stroke-width: 2.769;" transform="matrix(1.0, 0.0, 0.0, 1.0, 0.0, 0.0)"><path d="M -0.5 0.28867513459481303 L 0.5 0.28867513459481303 L 2.220446049250313e-16 -0.5773502691896257 L -0.5000000000000002 0.28867513459481264 Z" style="vector-effect: non-scaling-stroke;" /></g></g></g></g></g><g transform="matrix(1.0, 0.0, 0.0, 1.0, 0.0, 1.7320508075688772)"><g transform="matrix(1.0, 0.0, 0.0, 1.0, -0.4999999999999999, 0.14433756729740635)"><g><g><g /><g style="stroke: black;stroke-width: 2.769;" transform="matrix(1.0, 0.0, 0.0, 1.0, 0.0, 0.0)"><path d="M -0.5 0.28867513459481303 L 0.5 0.28867513459481303 L 2.220446049250313e-16 -0.5773502691896257 L -0.5000000000000002 0.28867513459481264 Z" style="vector-effect: non-scaling-stroke;" /></g></g><g style="stroke: black;stroke-width: 2.769;" transform="matrix(1.0, 0.0, 0.0, 1.0, 1.0, 0.0)"><path d="M -0.5 0.28867513459481303 L 0.5 0.28867513459481303 L 2.220446049250313e-16 -0.5773502691896257 L -0.5000000000000002 0.28867513459481264 Z" style="vector-effect: non-scaling-stroke;" /></g></g></g></g></g><g transform="matrix(1.0, 0.0, 0.0, 1.0, 0.0, 2.598076211353316)"><g transform="matrix(1.0, 0.0, 0.0, 1.0, -0.9999999999999999, 0.14433756729740635)"><g><g><g><g /><g style="stroke: black;stroke-width: 2.769;" transform="matrix(1.0, 0.0, 0.0, 1.0, 0.0, 0.0)"><path d="M -0.5 0.28867513459481303 L 0.5 0.28867513459481303 L 2.220446049250313e-16 -0.5773502691896257 L -0.5000000000000002 0.28867513459481264 Z" style="vector-effect: non-scaling-stroke;" /></g></g><g style="stroke: black;stroke-width: 2.769;" transform="matrix(1.0, 0.0, 0.0, 1.0, 1.0, 0.0)"><path d="M -0.5 0.28867513459481303 L 0.5 0.28867513459481303 L 2.220446049250313e-16 -0.5773502691896257 L -0.5000000000000002 0.28867513459481264 Z" style="vector-effect: non-scaling-stroke;" /></g></g><g style="stroke: black;stroke-width: 2.769;" transform="matrix(1.0, 0.0, 0.0, 1.0, 2.0, 0.0)"><path d="M -0.5 0.28867513459481303 L 0.5 0.28867513459481303 L 2.220446049250313e-16 -0.5773502691896257 L -0.5000000000000002 0.28867513459481264 Z" style="vector-effect: non-scaling-stroke;" /></g></g></g></g></g><g transform="matrix(1.0, 0.0, 0.0, 1.0, 0.0, 3.4641016151377544)"><g transform="matrix(1.0, 0.0, 0.0, 1.0, -1.5, 0.14433756729740635)"><g><g><g><g><g /><g style="stroke: black;stroke-width: 2.769;" transform="matrix(1.0, 0.0, 0.0, 1.0, 0.0, 0.0)"><path d="M -0.5 0.28867513459481303 L 0.5 0.28867513459481303 L 2.220446049250313e-16 -0.5773502691896257 L -0.5000000000000002 0.28867513459481264 Z" style="vector-effect: non-scaling-stroke;" /></g></g><g style="stroke: black;stroke-width: 2.769;" transform="matrix(1.0, 0.0, 0.0, 1.0, 1.0, 0.0)"><path d="M -0.5 0.28867513459481303 L 0.5 0.28867513459481303 L 2.220446049250313e-16 -0.5773502691896257 L -0.5000000000000002 0.28867513459481264 Z" style="vector-effect: non-scaling-stroke;" /></g></g><g style="stroke: black;stroke-width: 2.769;" transform="matrix(1.0, 0.0, 0.0, 1.0, 2.0, 0.0)"><path d="M -0.5 0.28867513459481303 L 0.5 0.28867513459481303 L 2.220446049250313e-16 -0.5773502691896257 L -0.5000000000000002 0.28867513459481264 Z" style="vector-effect: non-scaling-stroke;" /></g></g><g style="stroke: black;stroke-width: 2.769;" transform="matrix(1.0, 0.0, 0.0, 1.0, 3.0, 0.0)"><path d="M -0.5 0.28867513459481303 L 0.5 0.28867513459481303 L 2.220446049250313e-16 -0.5773502691896257 L -0.5000000000000002 0.28867513459481264 Z" style="vector-effect: non-scaling-stroke;" /></g></g></g></g></g><g transform="matrix(1.0, 0.0, 0.0, 1.0, 0.0, 4.330127018922193)"><g transform="matrix(1.0, 0.0, 0.0, 1.0, -2.0, 0.14433756729740635)"><g><g><g><g><g><g /><g style="stroke: black;stroke-width: 2.769;" transform="matrix(1.0, 0.0, 0.0, 1.0, 0.0, 0.0)"><path d="M -0.5 0.28867513459481303 L 0.5 0.28867513459481303 L 2.220446049250313e-16 -0.5773502691896257 L -0.5000000000000002 0.28867513459481264 Z" style="vector-effect: non-scaling-stroke;" /></g></g><g style="stroke: black;stroke-width: 2.769;" transform="matrix(1.0, 0.0, 0.0, 1.0, 1.0, 0.0)"><path d="M -0.5 0.28867513459481303 L 0.5 0.28867513459481303 L 2.220446049250313e-16 -0.5773502691896257 L -0.5000000000000002 0.28867513459481264 Z" style="vector-effect: non-scaling-stroke;" /></g></g><g style="stroke: black;stroke-width: 2.769;" transform="matrix(1.0, 0.0, 0.0, 1.0, 2.0, 0.0)"><path d="M -0.5 0.28867513459481303 L 0.5 0.28867513459481303 L 2.220446049250313e-16 -0.5773502691896257 L -0.5000000000000002 0.28867513459481264 Z" style="vector-effect: non-scaling-stroke;" /></g></g><g style="stroke: black;stroke-width: 2.769;" transform="matrix(1.0, 0.0, 0.0, 1.0, 3.0, 0.0)"><path d="M -0.5 0.28867513459481303 L 0.5 0.28867513459481303 L 2.220446049250313e-16 -0.5773502691896257 L -0.5000000000000002 0.28867513459481264 Z" style="vector-effect: non-scaling-stroke;" /></g></g><g style="stroke: black;stroke-width: 2.769;" transform="matrix(1.0, 0.0, 0.0, 1.0, 4.0, 0.0)"><path d="M -0.5 0.28867513459481303 L 0.5 0.28867513459481303 L 2.220446049250313e-16 -0.5773502691896257 L -0.5000000000000002 0.28867513459481264 Z" style="vector-effect: non-scaling-stroke;" /></g></g></g></g></g><g transform="matrix(1.0, 0.0, 0.0, 1.0, 0.0, 5.196152422706632)"><g transform="matrix(1.0, 0.0, 0.0, 1.0, -2.5, 0.14433756729740635)"><g><g><g><g><g><g><g /><g style="stroke: black;stroke-width: 2.769;" transform="matrix(1.0, 0.0, 0.0, 1.0, 0.0, 0.0)"><path d="M -0.5 0.28867513459481303 L 0.5 0.28867513459481303 L 2.220446049250313e-16 -0.5773502691896257 L -0.5000000000000002 0.28867513459481264 Z" style="vector-effect: non-scaling-stroke;" /></g></g><g style="stroke: black;stroke-width: 2.769;" transform="matrix(1.0, 0.0, 0.0, 1.0, 1.0, 0.0)"><path d="M -0.5 0.28867513459481303 L 0.5 0.28867513459481303 L 2.220446049250313e-16 -0.5773502691896257 L -0.5000000000000002 0.28867513459481264 Z" style="vector-effect: non-scaling-stroke;" /></g></g><g style="stroke: black;stroke-width: 2.769;" transform="matrix(1.0, 0.0, 0.0, 1.0, 2.0, 0.0)"><path d="M -0.5 0.28867513459481303 L 0.5 0.28867513459481303 L 2.220446049250313e-16 -0.5773502691896257 L -0.5000000000000002 0.28867513459481264 Z" style="vector-effect: non-scaling-stroke;" /></g></g><g style="stroke: black;stroke-width: 2.769;" transform="matrix(1.0, 0.0, 0.0, 1.0, 3.0, 0.0)"><path d="M -0.5 0.28867513459481303 L 0.5 0.28867513459481303 L 2.220446049250313e-16 -0.5773502691896257 L -0.5000000000000002 0.28867513459481264 Z" style="vector-effect: non-scaling-stroke;" /></g></g><g style="stroke: black;stroke-width: 2.769;" transform="matrix(1.0, 0.0, 0.0, 1.0, 4.0, 0.0)"><path d="M -0.5 0.28867513459481303 L 0.5 0.28867513459481303 L 2.220446049250313e-16 -0.5773502691896257 L -0.5000000000000002 0.28867513459481264 Z" style="vector-effect: non-scaling-stroke;" /></g></g><g style="stroke: black;stroke-width: 2.769;" transform="matrix(1.0, 0.0, 0.0, 1.0, 5.0, 0.0)"><path d="M -0.5 0.28867513459481303 L 0.5 0.28867513459481303 L 2.220446049250313e-16 -0.5773502691896257 L -0.5000000000000002 0.28867513459481264 Z" style="vector-effect: non-scaling-stroke;" /></g></g></g></g></g></g><g /></g></g></g></g></svg>