<?xml version="1.0" encoding="utf-8" ?>
<svg baseProfile="full" height="800" version="1.1" width="800" xmlns="http://www.w3.org/2000/svg" xmlns:ev="http://www.w3.org/2001/xml-events" xmlns:xlink="http://www.w3.org/1999/xlink"><defs><marker id="arrow" markerHeight="3.5" markerWidth="5" orient="auto" refX="5.0" refY="1.7"><polygon points="0,0 5,1.75 0,3.5" /></marker></defs><g style="fill:white;"><g transform="matrix(1.0, 0.0, 0.0, 1.0, 399.99999999999994, 399.99999999999994)"><g transform="matrix(9.40623162845385, 0.0, 0.0, 9.40623162845385, 0.0, 0.0)"><g><g transform="matrix(1.0, 0.0, 0.0, 1.0, -0.0, -0.0)"><g><g><g /><g style="stroke: black;stroke-width: 2.4000000000000004;" transform="matrix(40.0, 0.0, 0.0, 40.0, 40.0, 0.0)"><path d="M 0.0 0.0 A 1.0 1.0 0.0 0 0 -1.0 -1.0 A 1.0 1.0 -90.0 0 0 -2.0 0.0 A 1.0 1.0 180.0 0 0 -1.0 1.0 A 1.0 1.0 90.0 0 0 0.0 0.0 Z" style="vector-effect: non-scaling-stroke;" /></g></g><g><g><g><g><g><g><g><g><g /><g style="fill: #000000;stroke: black;stroke-width: 2.4000000000000004;" transform="matrix(0.5, 0.0, 0.0, 0.5, 40.5, 0.0)"><path d="M 0.0 0.0 A 1.0 1.0 0.0 0 0 -1.0 -1.0 A 1.0 1.0 -90.0 0 0 -2.0 0.0 A 1.0 1.0 180.0 0 0 -1.0 1.0 A 1.0 1.0 90.0 0 0 0.0 0.0 Z" style="vector-effect: non-scaling-stroke;" /></g></g><g style="fill: #000000;stroke: black;stroke-width: 2.4000000000000004;" transform="matrix(0.5, 0.0, 0.0, 0.5, 28.784271247461902, 28.2842712474619)"><path d="M 0.0 0.0 A 1.0 1.0 0.0 0 0 -1.0 -1.0 A 1.0 1.0 -90.0 0 0 -2.0 0.0 A 1.0 1.0 180.0 0 0 -1.0 1.0 A 1.0 1.0 90.0 0 0 0.0 0.0 Z" style="vector-effect: non-scaling-stroke;" /></g></g><g style="fill: #000000;stroke: black;stroke-width: 2.4000000000000004;" transform="matrix(0.5, 0.0, 0.0, 0.5, 0.5000000000000024, 40.0)"><path d="M 0.0 0.0 A 1.0 1.0 0.0 0 0 -1.0 -1.0 A 1.0 1.0 -90.0 0 0 -2.0 0.0 A 1.0 1.0 180.0 0 0 -1.0 1.0 A 1.0 1.0 90.0 0 0 0.0 0.0 Z" style="vector-effect: non-scaling-stroke;" /></g></g><g style="fill: #000000;stroke: black;stroke-width: 2.4000000000000004;" transform="matrix(0.5, 0.0, 0.0, 0.5, -27.7842712474619, 28.284271247461902)"><path d="M 0.0 0.0 A 1.0 1.0 0.0 0 0 -1.0 -1.0 A 1.0 1.0 -90.0 0 0 -2.0 0.0 A 1.0 1.0 180.0 0 0 -1.0 1.0 A 1.0 1.0 90.0 0 0 0.0 0.0 Z" style="vector-effect: non-scaling-stroke;" /></g></g><g style="fill: #000000;stroke: black;stroke-width: 2.4000000000000004;" transform="matrix(0.5, 0.0, 0.0, 0.5, -39.5, 4.898587196589413e-15)"><path d="M 0.0 0.0 A 1.0 1.0 0.0 0 0 -1.0 -1.0 A 1.0 1.0 -90.0 0 0 -2.0 0.0 A 1.0 1.0 180.0 0 0 -1.0 1.0 A 1.0 1.0 90.0 0 0 0.0 0.0 Z" style="vector-effect: non-scaling-stroke;" /></g></g><g style="fill: #000000;stroke: black;stroke-width: 2.4000000000000004;" transform="matrix(0.5, 0.0, 0.0, 0.5, -27.78427124746191, -28.2842712474619)"><path d="M 0.0 0.0 A 1.0 1.0 0.0 0 0 -1.0 -1.0 A 1.0 1.0 -90.0 0 0 -2.0 0.0 A 1.0 1.0 180.0 0 0 -1.0 1.0 A 1.0 1.0 90.0 0 0 0.0 0.0 Z" style="vector-effect: non-scaling-stroke;" /></g></g><g style="fill: #000000;stroke: black;stroke-width: 2.4000000000000004;" transform="matrix(0.5, 0.0, 0.0, 0.5, 0.4999999999999927, -40.0)"><path d="M 0.0 0.0 A 1.0 1.0 0.0 0 0 -1.0 -1.0 A 1.0 1.0 -90.0 0 0 -2.0 0.0 A 1.0 1.0 180.0 0 0 -1.0 1.0 A 1.0 1.0 90.0 0 0 0.0 0.0 Z" style="vector-effect: non-scaling-stroke;" /></g></g><g style="fill: #000000;stroke: black;stroke-width: 2.4000000000000004;" transform="matrix(0.5, 0.0, 0.0, 0.5, 28.784271247461895, -28.28427124746191)"><path d="M 0.0 0.0 A 1.0 1.0 0.0 0 0 -1.0 -1.0 A 1.0 1.0 -90.0 0 0 -2.0 0.0 A 1.0 1.0 180.0 0 0 -1.0 1.0 A 1.0 1.0 90.0 0 0 0.0 0.0 Z" style="vector-effect: non-scaling-stroke;" /></g></g></g></g><g /></g></g></g></g></svg>